PathFileType	4	(X/Y/Z)	OpenSim_Sub01_CSBaseline_Gyro.trc
DataRate	CameraRate	NumFrames	NumMarkers	Units	OrigDataRate	OrigDataStartFrame	OrigNumFrames
100	100	37	8	m	100	5207	5950
Frame#	Time	torso_imu_offset_imu	pelvis_imu_offset_imu	tibia_r_imu_offset_imu	femur_r_imu_offset_imu	tibia_l_imu_offset_imu	femur_l_imu_offset_imu	toes_r_imu_offset_imu	toes_l_imu_offset_imu
				X1	Y1	Z1	X2	Y2	Z2	X3	Y3	Z3	X4	Y4	Z4	X5	Y5	Z5	X6	Y6	Z6	X7	Y7	Z7	X8		Y8	Z8	

5207	52.06000000	-0.23846704	0.13512461	-0.19650690	-0.66469063	-0.11212939	-0.07253639	-0.47202255	0.00149994	-1.81807684	-0.38757741	-0.03668303	0.07285012	0.31973273	-0.07046930	1.79027992	-0.00386519	-0.73044315	-0.37692513	-0.43091569	-1.40927450	-0.37013754	-0.58599947	-1.79086858	0.74260327
5208	52.07000000	-0.27269985	0.19096201	-0.22506697	-0.74289279	-0.14287019	-0.04538053	-0.52467211	0.06291886	-1.94880659	-0.55446601	0.02982451	0.18432052	0.25970982	-0.27328439	1.46625947	-0.27683610	-0.86458955	-0.14382269	-0.49568870	-1.72794245	-0.33424265	-0.92058898	-2.18390052	0.85931729
5209	52.08000000	-0.30168526	0.24250593	-0.25306802	-0.78874472	-0.19640976	-0.03972962	-0.59790358	0.11612158	-2.05890340	-0.64632412	0.11239778	0.27952913	0.14371863	-0.28844445	1.05384151	-0.40357687	-0.90972120	0.22323647	-0.58096351	-2.07807322	-0.27539076	-0.99028215	-2.72816673	0.72907736
5210	52.09000000	-0.32692310	0.28652259	-0.27907290	-0.79094117	-0.24351063	-0.04820790	-0.70346729	0.14520781	-2.14898530	-0.65162574	0.21468003	0.35781751	-0.06411852	-0.15829302	0.71799462	-0.42622784	-0.80671407	0.65799645	-0.66773830	-2.43753373	-0.21470998	-0.83460715	-3.22074966	0.47202668
5211	52.10000000	-0.35427728	0.31882461	-0.30262274	-0.74022401	-0.23553087	-0.05353827	-0.84494336	0.13762380	-2.23084224	-0.58474390	0.33773669	0.42505595	-0.44165479	-0.04637429	0.64175497	-0.48739546	-0.50201040	1.05893682	-0.72126291	-2.77573601	-0.18183720	-0.66618749	-3.31835980	0.34563376
5212	52.11000000	-0.38428794	0.33520192	-0.32251151	-0.63609159	-0.15677068	-0.04730553	-1.01866520	0.09214017	-2.31388360	-0.47174458	0.47971630	0.49049372	-0.98443952	-0.04173861	0.88631687	-0.64831062	-0.04858802	1.30424407	-0.73082568	-3.09661434	-0.18481616	-0.60979375	-2.86520942	0.46138306
5213	52.12000000	-0.40549056	0.33142131	-0.33583783	-0.49752132	-0.06559257	-0.04115341	-1.20503250	0.03269873	-2.40188493	-0.36403703	0.63233339	0.57073129	-1.50316966	-0.06372534	1.24049162	-0.78573622	0.26302627	1.22784241	-0.73980545	-3.48137520	-0.18326523	-0.58918121	-2.12792564	0.60106923
5214	52.13000000	-0.40631876	0.30425401	-0.33962801	-0.34785051	-0.02565108	-0.04771596	-1.38745616	-0.01465010	-2.49665320	-0.31183615	0.78596993	0.68235283	-1.79601317	-0.01929840	1.47408516	-0.77655174	0.14899050	0.69521599	-0.78991636	-4.01307306	-0.13896218	-0.50995589	-1.41428787	0.52820093
5215	52.14000000	-0.39092318	0.26087287	-0.33253006	-0.22821755	-0.05177935	-0.06183122	-1.60269057	-0.03724812	-2.58754231	-0.31762589	0.92623849	0.83150548	-1.79000496	0.07527640	1.54117772	-0.75651522	-0.27370470	-0.04051077	-0.83013012	-4.68590276	-0.10362095	-0.37114638	-0.86686431	0.27803750
5216	52.15000000	-0.37271947	0.21456641	-0.31415651	-0.19012520	-0.12995876	-0.06786768	-1.91852330	-0.03040890	-2.65658136	-0.35577297	1.03597604	1.01816392	-1.48851096	0.13938396	1.50451249	-1.01291565	-0.65229462	-0.49845295	-0.75501440	-5.44141313	-0.18174998	-0.22684144	-0.53053634	0.04580393
5217	52.16000000	-0.36371527	0.17430739	-0.28579564	-0.25611585	-0.23524521	-0.05621573	-2.31057631	-0.00461814	-2.69034787	-0.40906035	1.10605385	1.23900706	-0.96083531	0.11976604	1.41784044	-1.58199933	-0.77843229	-0.39119585	-0.52392321	-6.17308456	-0.42277808	-0.12036099	-0.40206159	-0.04597235
5218	52.17000000	-0.37250947	0.13926259	-0.25244682	-0.38381454	-0.31914899	-0.03100433	-2.54793044	-0.00398485	-2.68577923	-0.47986081	1.14535004	1.48353802	-0.42120666	0.02606056	1.31171473	-1.93549907	-0.77280487	0.13042308	-0.24233530	-6.66866205	-0.75171412	-0.06940899	-0.37363774	-0.04158482
5219	52.18000000	-0.40590322	0.10710965	-0.21990391	-0.52364625	-0.33428824	0.00119687	-2.39352863	-0.07230486	-2.64181723	-0.57320087	1.16236312	1.73876960	-0.08243924	-0.12047324	1.21206082	-1.53486895	-0.78709274	0.84960730	-0.02895511	-6.72925399	-1.07917846	-0.08475027	-0.33176811	-0.00452374
5220	52.19000000	-0.45689999	0.07385041	-0.19697866	-0.64238479	-0.27760808	0.02781194	-1.83545601	-0.20317457	-2.56362437	-0.69413926	1.13652019	1.97602880	0.05969321	-0.26645893	1.12943332	-0.52399224	-0.83332597	1.48079815	0.06509083	-6.44162426	-1.34104627	-0.14129510	-0.25022390	0.03656474
5221	52.20000000	-0.51038018	0.03451435	-0.19423486	-0.71650745	-0.17219783	0.03276341	-0.99482347	-0.36052513	-2.45998665	-0.84767685	1.03026065	2.15747349	0.13713743	-0.33975948	1.06527809	0.55130228	-0.84130417	1.69884100	0.02847354	-6.06079832	-1.48827307	-0.19287616	-0.15425020	0.07359362
5222	52.21000000	-0.55467208	-0.01244118	-0.21624508	-0.73501268	-0.04015098	0.00879872	-0.03769395	-0.49725005	-2.32988762	-1.02251737	0.84032750	2.26308596	0.21527801	-0.30758969	1.01227348	1.27800321	-0.77278026	1.38370215	-0.16441198	-5.78890779	-1.51045793	-0.20889044	-0.06773679	0.09938288
5223	52.22000000	-0.58603144	-0.06088228	-0.25416335	-0.71455727	0.09941490	-0.03154295	0.77340588	-0.54247050	-2.15033447	-1.17100294	0.64049419	2.31288393	0.20729826	-0.22550998	0.94379787	1.55104204	-0.66317492	0.87416956	-0.57217216	-5.70521139	-1.48298917	-0.19407102	-0.01006507	0.10818328
5224	52.23000000	-0.60205808	-0.10379253	-0.29758114	-0.67436787	0.22781233	-0.07315600	1.18527518	-0.43171272	-1.89905197	-1.24280580	0.50800755	2.33184792	0.02110739	-0.15692063	0.83545082	1.32699966	-0.55520931	0.54260205	-1.23997526	-5.84107433	-1.47997925	-0.15789739	0.00255915	0.09542327
5225	52.24000000	-0.60315382	-0.13576755	-0.33870220	-0.62156666	0.32663678	-0.10208634	1.17573515	-0.19983320	-1.59187053	-1.21082753	0.44837179	2.34026839	-0.27723052	-0.12275178	0.71272187	0.76875099	-0.46406916	0.46702485	-2.02816103	-5.90506255	-1.44253471	-0.10949013	-0.01958421	0.06669088
5226	52.25000000	-0.59137418	-0.15237068	-0.37127377	-0.55613863	0.37769583	-0.10509268	0.85896131	0.05980475	-1.26710507	-1.06180732	0.42479803	2.35560283	-0.52856750	-0.11885963	0.63040648	0.16047080	-0.38873973	0.55183597	-2.68788514	-5.41643962	-1.23362016	-0.05776080	-0.05062282	0.03356097
5227	52.26000000	-0.56893739	-0.15270450	-0.38956547	-0.47877551	0.37238394	-0.07603858	0.36439375	0.27272820	-0.96425111	-0.81097126	0.40655792	2.38125845	-0.61897685	-0.13679196	0.61687399	-0.29743934	-0.33731624	0.70212221	-2.93811098	-4.13195552	-0.78397447	-0.01219048	-0.07143562	0.00624858
5228	52.27000000	-0.53837704	-0.14374072	-0.38896802	-0.39195188	0.32348037	-0.02461990	-0.14840033	0.40830094	-0.72479006	-0.53670830	0.37766557	2.38937425	-0.53811709	-0.15920626	0.64068484	-0.59499637	-0.33868789	0.82951446	-2.42912109	-2.34371540	-0.17781255	0.01646292	-0.07841514	-0.00823796
5229	52.28000000	-0.50209817	-0.13322060	-0.36567484	-0.29906437	0.24694814	0.03785162	-0.53104018	0.44494565	-0.58083277	-0.32014259	0.32595701	2.35062078	-0.29626451	-0.16903348	0.66430719	-0.74800626	-0.41781330	0.85585862	-0.88511157	-0.41655437	0.47900839	0.01871060	-0.07089814	-0.00421772
5230	52.29000000	-0.46073789	-0.12583794	-0.32259986	-0.21053847	0.16174690	0.10549794	-0.79271301	0.39337202	-0.46497805	-0.18240580	0.25813147	2.26418626	0.02814830	-0.16444570	0.67085903	-0.77252444	-0.53002734	0.79931537	1.11072953	1.28166869	1.07158769	-0.00005076	-0.05694660	0.01476598
5231	52.30000000	-0.41390064	-0.12447705	-0.26662337	-0.14091306	0.08856990	0.17564616	-1.03512471	0.28341507	-0.25137145	-0.10918090	0.19200571	2.14607372	0.31662123	-0.15259381	0.65567321	-0.68478188	-0.58980469	0.73474940	2.47073421	2.38233221	1.47995484	-0.02565867	-0.04973550	0.03973789
5232	52.31000000	-0.36334863	-0.12952344	-0.20501510	-0.09773346	0.04087326	0.24556376	-1.26834132	0.16163211	0.13285825	-0.07373867	0.14326018	2.01057567	0.48003672	-0.13806233	0.62113318	-0.50702922	-0.55647244	0.71304421	2.58388252	2.73327443	1.64031219	-0.04718515	-0.05521719	0.06374774
5233	52.32000000	-0.31568846	-0.13583944	-0.14579931	-0.07282186	0.01591505	0.31229282	-1.29528766	0.11134088	0.64067675	-0.02267727	0.12248805	1.86768308	0.49599311	-0.11945062	0.58500197	-0.27494341	-0.49061380	0.72993962	1.91723267	2.66533555	1.61434511	-0.06117204	-0.06308086	0.08452017
5234	52.33000000	-0.27762083	-0.13801280	-0.09663341	-0.05618059	0.00893127	0.37247385	-0.91918287	0.20633106	1.20790708	0.09509212	0.13731662	1.72602925	0.35849390	-0.09501100	0.56498148	-0.02541638	-0.46025825	0.77247264	1.06217210	2.55517511	1.47705612	-0.06545520	-0.06199649	0.10039079
5235	52.34000000	-0.25005088	-0.13551202	-0.06033350	-0.04098750	0.01690919	0.41891658	-0.23563023	0.37067952	1.76088819	0.26952206	0.17186084	1.58624027	0.13771113	-0.06777334	0.55665952	0.21087187	-0.46886750	0.81486339	0.38769877	2.57779141	1.26564762	-0.06079502	-0.05282942	0.10947237
5236	52.35000000	-0.23046489	-0.13068215	-0.03685532	-0.02230196	0.03785899	0.44219391	0.48749386	0.44054289	2.22053390	0.45453515	0.19641758	1.44423000	-0.05140732	-0.04358030	0.54263453	0.40695230	-0.48187099	0.82385697	0.13075109	2.78899620	0.99510026	-0.04967324	-0.04363357	0.10975089
5237	52.36000000	-0.21635275	-0.12530559	-0.02520773	0.00307157	0.06764380	0.43776433	1.02627163	0.33620931	2.54371237	0.61146598	0.19233076	1.29831822	-0.12713653	-0.02709453	0.51736814	0.54570851	-0.47675409	0.78438277	0.34388674	3.19700599	0.69670168	-0.03375141	-0.04128993	0.10021513
5238	52.37000000	-0.20531098	-0.11982644	-0.02236943	0.03448910	0.09730656	0.41205176	1.25983683	0.16822255	2.76767212	0.71922629	0.16599172	1.15232890	-0.08317232	-0.02026465	0.50216655	0.63190097	-0.45899903	0.72215980	0.67206911	3.70727684	0.43876569	-0.01281126	-0.04985498	0.08209487
5239	52.38000000	-0.19484425	-0.11457255	-0.02505294	0.07086258	0.11801525	0.37283090	1.09866320	0.06400673	2.93985098	0.76102371	0.12705960	1.01041452	0.07198615	-0.02421526	0.51925610	0.67388478	-0.43717567	0.66669744	0.74106395	4.21553891	0.28640150	0.01328660	-0.07206968	0.05720672
5240	52.39000000	-0.18136023	-0.11054157	-0.03005868	0.11188271	0.12896197	0.32650405	0.63281840	0.05949330	3.10059814	0.73986188	0.08394155	0.87243077	0.28236733	-0.03535509	0.56286473	0.68656581	-0.41262172	0.62965821	0.54779747	4.66065767	0.21991483	0.04124210	-0.10103936	0.03029488
5241	52.40000000	-0.16063058	-0.10912244	-0.03424314	0.15768176	0.13405942	0.27866479	0.05817130	0.13656223	3.28598588	0.67042050	0.04428599	0.73571807	0.46411217	-0.04731231	0.61073554	0.68866601	-0.38242456	0.61214124	0.30779416	5.00698350	0.16974725	0.06573396	-0.12421145	0.00782183
5242	52.41000000	-0.13079222	-0.11089103	-0.03534889	0.20461378	0.13448145	0.23509964	-0.45975508	0.26033922	3.51190866	0.56698422	0.01145330	0.60173676	0.55814904	-0.05400952	0.64733303	0.68866881	-0.34705600	0.60773763	0.16172202	5.22713436	0.10073773	0.08310571	-0.13460362	-0.00560075
5243	52.42000000	-0.09527783	-0.11459777	-0.03309399	0.24058974	0.12515481	0.20204885	-0.82619864	0.36012546	3.74936196	0.44261961	-0.02074193	0.48121234	0.56151801	-0.05010644	0.67259448	0.67210264	-0.31466207	0.59359077	0.07691995	5.31144033	0.05591317	0.09347365	-0.13782537	-0.00954040
